<svg xmlns="http://www.w3.org/2000/svg" viewBox="0 0 1200 630" fill="none">
  <defs>
    <linearGradient id="bg" x1="0%" y1="0%" x2="100%" y2="100%">
      <stop offset="0%" style="stop-color:#f8fafc"/>
      <stop offset="100%" style="stop-color:#e2e8f0"/>
    </linearGradient>
    <linearGradient id="accent" x1="0%" y1="0%" x2="100%" y2="0%">
      <stop offset="0%" style="stop-color:#6366f1"/>
      <stop offset="100%" style="stop-color:#8b5cf6"/>
    </linearGradient>
    <linearGradient id="btn-grad" x1="0%" y1="0%" x2="100%" y2="0%">
      <stop offset="0%" style="stop-color:#00d4ff"/>
      <stop offset="100%" style="stop-color:#00a8cc"/>
    </linearGradient>
  </defs>
  <!-- Background -->
  <rect width="1200" height="630" rx="16" fill="url(#bg)"/>
  <!-- Header bar -->
  <rect x="0" y="0" width="1200" height="56" rx="16" fill="#6366f1"/>
  <rect x="0" y="16" width="1200" height="40" fill="#6366f1"/>
  <text x="40" y="36" font-family="system-ui" font-size="16" font-weight="600" fill="white">json</text>
  <text x="140" y="36" font-family="system-ui" font-size="14" fill="rgba(255,255,255,0.8)">AI Humanizer</text>
  <text x="280" y="36" font-family="system-ui" font-size="14" fill="rgba(255,255,255,0.6)">AI Detector</text>
  <text x="410" y="36" font-family="system-ui" font-size="14" fill="rgba(255,255,255,0.6)">Plagiarism</text>
  <!-- Badges -->
  <rect x="380" y="85" width="130" height="28" rx="14" fill="url(#accent)" opacity="0.9"/>
  <text x="405" y="103" font-family="system-ui" font-size="11" fill="white">&#x26A1; Premium Quality</text>
  <rect x="520" y="85" width="140" height="28" rx="14" fill="white" stroke="#e2e8f0"/>
  <text x="540" y="103" font-family="system-ui" font-size="11" fill="#475569">&#x1F6E1; Bypass All Detectors</text>
  <rect x="670" y="85" width="120" height="28" rx="14" fill="white" stroke="#e2e8f0"/>
  <text x="690" y="103" font-family="system-ui" font-size="11" fill="#475569">&#x1F310; 50+ Languages</text>
  <!-- Title -->
  <text x="600" y="160" font-family="system-ui" font-size="28" font-weight="700" fill="#0f172a" text-anchor="middle">AI Text Humanizer</text>
  <!-- Mode buttons -->
  <rect x="250" y="185" width="70" height="28" rx="14" fill="rgba(0,212,255,0.12)" stroke="#00d4ff"/>
  <text x="265" y="203" font-family="system-ui" font-size="11" fill="#00a8cc">Free</text>
  <rect x="330" y="185" width="85" height="28" rx="14" fill="white" stroke="#e2e8f0"/>
  <text x="345" y="203" font-family="system-ui" font-size="11" fill="#475569">Standard</text>
  <rect x="425" y="185" width="85" height="28" rx="14" fill="white" stroke="#e2e8f0"/>
  <text x="440" y="203" font-family="system-ui" font-size="11" fill="#475569">Academic</text>
  <rect x="520" y="185" width="75" height="28" rx="14" fill="white" stroke="#e2e8f0"/>
  <text x="535" y="203" font-family="system-ui" font-size="11" fill="#475569">Simple</text>
  <rect x="605" y="185" width="80" height="28" rx="14" fill="white" stroke="#e2e8f0"/>
  <text x="620" y="203" font-family="system-ui" font-size="11" fill="#475569">Flowing</text>
  <rect x="695" y="185" width="85" height="28" rx="14" fill="white" stroke="#e2e8f0"/>
  <text x="710" y="203" font-family="system-ui" font-size="11" fill="#475569">Informal</text>
  <rect x="790" y="185" width="85" height="28" rx="14" fill="white" stroke="#e2e8f0"/>
  <text x="805" y="203" font-family="system-ui" font-size="11" fill="#475569">Formal</text>
  <!-- Input area -->
  <rect x="80" y="235" width="1040" height="140" rx="12" fill="white" stroke="#e2e8f0"/>
  <text x="100" y="270" font-family="system-ui" font-size="14" fill="#94a3b8">Insert (English) text here...</text>
  <text x="100" y="300" font-family="system-ui" font-size="13" fill="#334155">The rapid advancement of artificial intelligence has fundamentally transformed how we</text>
  <text x="100" y="322" font-family="system-ui" font-size="13" fill="#334155">approach content creation. AI models like ChatGPT, Claude, and Gemini can generate</text>
  <text x="100" y="344" font-family="system-ui" font-size="13" fill="#334155">text at unprecedented speed. However, this content often carries detectable patterns...</text>
  <!-- Input footer -->
  <rect x="80" y="365" width="1040" height="35" rx="0" fill="#f8fafc"/>
  <text x="100" y="387" font-family="system-ui" font-size="11" fill="#94a3b8">&#x2728; Try a sample</text>
  <text x="1060" y="387" font-family="system-ui" font-size="11" fill="#94a3b8" text-anchor="end">45 words</text>
  <!-- Humanize button -->
  <rect x="430" y="415" width="240" height="44" rx="12" fill="url(#btn-grad)"/>
  <text x="515" y="442" font-family="system-ui" font-size="16" font-weight="600" fill="white">&#x2728; Humanize AI</text>
  <!-- Trust strip -->
  <text x="380" y="490" font-family="system-ui" font-size="12" fill="#94a3b8">We bypass ALL detectors:</text>
  <text x="540" y="490" font-family="system-ui" font-size="12" font-weight="600" fill="#475569">GPTZero</text>
  <text x="600" y="490" font-family="system-ui" font-size="12" fill="#cbd5e1">&#xB7;</text>
  <text x="615" y="490" font-family="system-ui" font-size="12" font-weight="600" fill="#475569">Turnitin</text>
  <text x="675" y="490" font-family="system-ui" font-size="12" fill="#cbd5e1">&#xB7;</text>
  <text x="690" y="490" font-family="system-ui" font-size="12" font-weight="600" fill="#475569">Copyleaks</text>
  <text x="765" y="490" font-family="system-ui" font-size="12" fill="#cbd5e1">&#xB7;</text>
  <text x="780" y="490" font-family="system-ui" font-size="12" font-weight="600" fill="#475569">Originality.ai</text>
  <!-- Footer stats -->
  <rect x="80" y="520" width="1040" height="80" rx="12" fill="white" stroke="#e2e8f0"/>
  <text x="200" y="555" font-family="system-ui" font-size="22" font-weight="700" fill="#00a8cc" text-anchor="middle">15,000</text>
  <text x="200" y="580" font-family="system-ui" font-size="11" fill="#94a3b8" text-anchor="middle">Words Per Request</text>
  <text x="460" y="555" font-family="system-ui" font-size="22" font-weight="700" fill="#00a8cc" text-anchor="middle">10+</text>
  <text x="460" y="580" font-family="system-ui" font-size="11" fill="#94a3b8" text-anchor="middle">Humanize Modes</text>
  <text x="720" y="555" font-family="system-ui" font-size="22" font-weight="700" fill="#00a8cc" text-anchor="middle">50+</text>
  <text x="720" y="580" font-family="system-ui" font-size="11" fill="#94a3b8" text-anchor="middle">Languages Supported</text>
  <text x="980" y="555" font-family="system-ui" font-size="22" font-weight="700" fill="#00a8cc" text-anchor="middle">$0</text>
  <text x="980" y="580" font-family="system-ui" font-size="11" fill="#94a3b8" text-anchor="middle">Free Forever</text>
</svg>