<?xml version="1.0" encoding="UTF-8"?>
<svg xmlns="http://www.w3.org/2000/svg" viewBox="0 0 1200 630">
  <rect width="1200" height="630" fill="#f9fafb"/>
  <rect x="0" y="0" width="1200" height="60" fill="#f59e0b"/>
  <text x="30" y="38" fill="#fff" font-size="20" font-weight="bold">AI Article Rewriter — json</text>
  <rect x="20" y="80" width="560" height="500" rx="12" fill="#fff" stroke="#e5e7eb" stroke-width="2"/>
  <text x="40" y="110" fill="#111827" font-size="18" font-weight="bold">Rewrite Your Article</text>
  <rect x="40" y="130" width="520" height="220" rx="6" fill="#f3f4f6" stroke="#d1d5db" stroke-width="1"/>
  <text x="55" y="160" fill="#6b7280" font-size="13">Paste your article content here...</text>
  <text x="55" y="185" fill="#9ca3af" font-size="11">The AI will rewrite the entire article while</text>
  <text x="55" y="200" fill="#9ca3af" font-size="11">maintaining the original meaning, structure,</text>
  <text x="55" y="215" fill="#9ca3af" font-size="11">and SEO value of your content.</text>
  <rect x="40" y="370" width="250" height="40" rx="6" fill="#f3f4f6" stroke="#d1d5db" stroke-width="1"/>
  <text x="55" y="395" fill="#111827" font-size="13">Style: Natural</text>
  <text x="270" y="395" fill="#6b7280" font-size="13">▼</text>
  <rect x="310" y="370" width="250" height="40" rx="6" fill="#f3f4f6" stroke="#d1d5db" stroke-width="1"/>
  <text x="325" y="395" fill="#111827" font-size="13">Purpose: SEO</text>
  <text x="540" y="395" fill="#6b7280" font-size="13">▼</text>
  <rect x="40" y="430" width="520" height="50" rx="8" fill="#f59e0b"/>
  <text x="300" y="462" fill="#fff" font-size="16" font-weight="bold" text-anchor="middle">↻ Rewrite Article</text>
  <rect x="600" y="80" width="580" height="500" rx="12" fill="#fff" stroke="#e5e7eb" stroke-width="2"/>
  <text x="620" y="110" fill="#111827" font-size="18" font-weight="bold">Rewritten Article</text>
  <rect x="1000" y="95" width="80" height="30" rx="4" fill="#f3f4f6" stroke="#d1d5db" stroke-width="1"/>
  <text x="1040" y="115" fill="#f59e0b" font-size="11" text-anchor="middle">📋 Copy</text>
  <rect x="620" y="140" width="540" height="350" rx="6" fill="#f9fafb" stroke="#e5e7eb" stroke-width="1"/>
  <text x="640" y="170" fill="#111827" font-size="13" font-weight="bold">Original:</text>
  <text x="640" y="195" fill="#6b7280" font-size="11">The implementation of AI in healthcare</text>
  <text x="640" y="210" fill="#6b7280" font-size="11">has revolutionized patient care...</text>
  <text x="640" y="250" fill="#111827" font-size="13" font-weight="bold">Rewritten:</text>
  <text x="640" y="275" fill="#f59e0b" font-size="11">Artificial intelligence integration within</text>
  <text x="640" y="290" fill="#f59e0b" font-size="11">healthcare systems has fundamentally</text>
  <text x="640" y="305" fill="#f59e0b" font-size="11">transformed patient treatment protocols...</text>
  <rect x="620" y="510" width="540" height="55" rx="6" fill="#ecfdf5" stroke="#10b981" stroke-width="1"/>
  <text x="640" y="535" fill="#059669" font-size="12" font-weight="bold">✓ 100% Unique Content • SEO-Optimized</text>
  <text x="640" y="555" fill="#059669" font-size="10">Passes plagiarism check • Ready to publish</text>
</svg>
