<svg xmlns="http://www.w3.org/2000/svg" viewBox="0 0 800 500" width="800" height="500">
  <defs>
    <linearGradient id="g1" x1="0%" y1="0%" x2="100%" y2="100%">
      <stop offset="0%" style="stop-color:#78350f"/>
      <stop offset="100%" style="stop-color:#b45309"/>
    </linearGradient>
    <filter id="sh">
      <feDropShadow dx="0" dy="2" stdDeviation="4" flood-opacity="0.08"/>
    </filter>
  </defs>
  <rect width="800" height="500" fill="#fffbeb" rx="12"/>
  <text x="400" y="42" font-family="system-ui, sans-serif" font-size="18" font-weight="700" fill="#0f172a" text-anchor="middle">使用场景 — 谁需要浏览器指纹检测</text>

  <!-- 6 use-case cards -->
  <g transform="translate(30, 70)">
    <rect x="0" y="0" width="240" height="130" rx="12" fill="white" filter="url(#sh)"/>
    <circle cx="40" cy="45" r="28" fill="#fef3c7"/>
    <text x="40" y="53" font-family="system-ui, sans-serif" font-size="24" text-anchor="middle">👤</text>
    <text x="130" y="35" font-family="system-ui, sans-serif" font-size="14" font-weight="600" fill="#0f172a">普通用户自查</text>
    <text x="20" y="80" font-family="system-ui, sans-serif" font-size="11" fill="#64748b">了解浏览器被追踪程度</text>
    <text x="20" y="95" font-family="system-ui, sans-serif" font-size="11" fill="#64748b">发现隐私漏洞并修复</text>
    <text x="20" y="110" font-family="system-ui, sans-serif" font-size="11" fill="#64748b">保护个人在线身份</text>
  </g>
  <g transform="translate(280, 70)">
    <rect x="0" y="0" width="240" height="130" rx="12" fill="white" filter="url(#sh)"/>
    <circle cx="40" cy="45" r="28" fill="#fef2f2"/>
    <text x="40" y="53" font-family="system-ui, sans-serif" font-size="24" text-anchor="middle">🔐</text>
    <text x="130" y="35" font-family="system-ui, sans-serif" font-size="14" font-weight="600" fill="#0f172a">隐私爱好者</text>
    <text x="20" y="80" font-family="system-ui, sans-serif" font-size="11" fill="#64748b">验证隐私工具效果</text>
    <text x="20" y="95" font-family="system-ui, sans-serif" font-size="11" fill="#64748b">测试VPN/代理安全性</text>
    <text x="20" y="110" font-family="system-ui, sans-serif" font-size="11" fill="#64748b">优化浏览器隐私设置</text>
  </g>
  <g transform="translate(530, 70)">
    <rect x="0" y="0" width="240" height="130" rx="12" fill="white" filter="url(#sh)"/>
    <circle cx="40" cy="45" r="28" fill="#fef3c7"/>
    <text x="40" y="53" font-family="system-ui, sans-serif" font-size="24" text-anchor="middle">🏢</text>
    <text x="130" y="35" font-family="system-ui, sans-serif" font-size="14" font-weight="600" fill="#0f172a">企业安全团队</text>
    <text x="20" y="80" font-family="system-ui, sans-serif" font-size="11" fill="#64748b">评估员工设备安全</text>
    <text x="20" y="95" font-family="system-ui, sans-serif" font-size="11" fill="#64748b">制定隐私保护政策</text>
    <text x="20" y="110" font-family="system-ui, sans-serif" font-size="11" fill="#64748b">安全培训演示工具</text>
  </g>
  <g transform="translate(30, 210)">
    <rect x="0" y="0" width="240" height="130" rx="12" fill="white" filter="url(#sh)"/>
    <circle cx="40" cy="45" r="28" fill="#fef2f2"/>
    <text x="40" y="53" font-family="system-ui, sans-serif" font-size="24" text-anchor="middle">💻</text>
    <text x="130" y="35" font-family="system-ui, sans-serif" font-size="14" font-weight="600" fill="#0f172a">开发者测试</text>
    <text x="20" y="80" font-family="system-ui, sans-serif" font-size="11" fill="#64748b">测试网站追踪脚本</text>
    <text x="20" y="95" font-family="system-ui, sans-serif" font-size="11" fill="#64748b">验证反追踪功能</text>
    <text x="20" y="110" font-family="system-ui, sans-serif" font-size="11" fill="#64748b">调试Canvas/WebGL代码</text>
  </g>
  <g transform="translate(280, 210)">
    <rect x="0" y="0" width="240" height="130" rx="12" fill="white" filter="url(#sh)"/>
    <circle cx="40" cy="45" r="28" fill="#fef3c7"/>
    <text x="40" y="53" font-family="system-ui, sans-serif" font-size="24" text-anchor="middle">🔍</text>
    <text x="130" y="35" font-family="system-ui, sans-serif" font-size="14" font-weight="600" fill="#0f172a">VPN用户验证</text>
    <text x="20" y="80" font-family="system-ui, sans-serif" font-size="11" fill="#64748b">检查WebRTC IP泄漏</text>
    <text x="20" y="95" font-family="system-ui, sans-serif" font-size="11" fill="#64748b">验证DNS泄露防护</text>
    <text x="20" y="110" font-family="system-ui, sans-serif" font-size="11" fill="#64748b">确保匿名性有效</text>
  </g>
  <g transform="translate(530, 210)">
    <rect x="0" y="0" width="240" height="130" rx="12" fill="white" filter="url(#sh)"/>
    <circle cx="40" cy="45" r="28" fill="#fef2f2"/>
    <text x="40" y="53" font-family="system-ui, sans-serif" font-size="24" text-anchor="middle">📰</text>
    <text x="130" y="35" font-family="system-ui, sans-serif" font-size="14" font-weight="600" fill="#0f172a">安全研究者</text>
    <text x="20" y="80" font-family="system-ui, sans-serif" font-size="11" fill="#64748b">研究指纹追踪技术</text>
    <text x="20" y="95" font-family="system-ui, sans-serif" font-size="11" fill="#64748b">分析浏览器差异</text>
    <text x="20" y="110" font-family="system-ui, sans-serif" font-size="11" fill="#64748b">评估隐私浏览器效果</text>
  </g>

  <!-- Bottom bar -->
  <rect x="50" y="370" width="700" height="80" rx="14" fill="white" filter="url(#sh)"/>
  <g transform="translate(80, 395)">
    <text x="0" y="20" font-family="system-ui, sans-serif" font-size="22" font-weight="700" fill="#78350f">12+</text>
    <text x="0" y="45" font-family="system-ui, sans-serif" font-size="12" fill="#64748b">检测向量</text>
  </g>
  <line x1="160" y1="385" x2="160" y2="435" stroke="#fef3c7" stroke-width="1"/>
  <g transform="translate(200, 395)">
    <text x="0" y="20" font-family="system-ui, sans-serif" font-size="22" font-weight="700" fill="#92400e">100%</text>
    <text x="0" y="45" font-family="system-ui, sans-serif" font-size="12" fill="#64748b">客户端运行</text>
  </g>
  <line x1="330" y1="385" x2="330" y2="435" stroke="#fef3c7" stroke-width="1"/>
  <g transform="translate(370, 395)">
    <text x="0" y="20" font-family="system-ui, sans-serif" font-size="22" font-weight="700" fill="#78350f">实时</text>
    <text x="0" y="45" font-family="system-ui, sans-serif" font-size="12" fill="#64748b">秒级检测</text>
  </g>
  <line x1="480" y1="385" x2="480" y2="435" stroke="#fef3c7" stroke-width="1"/>
  <g transform="translate(520, 395)">
    <text x="0" y="20" font-family="system-ui, sans-serif" font-size="22" font-weight="700" fill="#92400e">免费</text>
    <text x="0" y="45" font-family="system-ui, sans-serif" font-size="12" fill="#64748b">无需注册</text>
  </g>
</svg>