<?xml version="1.0" encoding="UTF-8"?>
<svg xmlns="http://www.w3.org/2000/svg" viewBox="0 0 1200 630">
  <rect width="1200" height="630" fill="#fffbeb"/>
  <rect x="0" y="0" width="1200" height="60" fill="#f59e0b"/>
  <text x="30" y="38" fill="#fff" font-size="20" font-weight="bold">AI Detector for Academic Writing — json</text>
  <rect x="20" y="80" width="560" height="500" rx="12" fill="#fff" stroke="#d1d5db" stroke-width="2"/>
  <text x="40" y="110" fill="#111827" font-size="18" font-weight="bold">Paste Academic Text</text>
  <rect x="40" y="130" width="520" height="220" rx="6" fill="#fffbeb" stroke="#d1d5db" stroke-width="1"/>
  <text x="55" y="160" fill="#6b7280" font-size="13">Paste your thesis, paper, or journal article...</text>
  <text x="55" y="185" fill="#9ca3af" font-size="11">Our AI detector will analyze linguistic patterns</text>
  <text x="55" y="200" fill="#9ca3af" font-size="11">to determine if the content was AI-generated.</text>
  <rect x="40" y="370" width="250" height="40" rx="6" fill="#fffbeb" stroke="#d1d5db" stroke-width="1"/>
  <text x="55" y="395" fill="#111827" font-size="13">Type: Journal Article</text>
  <text x="270" y="395" fill="#6b7280" font-size="13">▼</text>
  <rect x="310" y="370" width="250" height="40" rx="6" fill="#fffbeb" stroke="#d1d5db" stroke-width="1"/>
  <text x="325" y="395" fill="#111827" font-size="13">Field: STEM</text>
  <text x="540" y="395" fill="#6b7280" font-size="13">▼</text>
  <rect x="40" y="430" width="520" height="50" rx="8" fill="#f59e0b"/>
  <text x="300" y="462" fill="#fff" font-size="16" font-weight="bold" text-anchor="middle">🔍 Detect AI Content</text>
  <rect x="600" y="80" width="580" height="500" rx="12" fill="#fff" stroke="#d1d5db" stroke-width="2"/>
  <text x="620" y="110" fill="#111827" font-size="18" font-weight="bold">Detection Result</text>
  <rect x="1000" y="95" width="80" height="30" rx="4" fill="#fffbeb" stroke="#d1d5db" stroke-width="1"/>
  <text x="1040" y="115" fill="#f59e0b" font-size="11" text-anchor="middle">📋 Report</text>
  <rect x="620" y="140" width="540" height="130" rx="8" fill="#f0fdf4" stroke="#059669" stroke-width="2"/>
  <text x="890" y="200" fill="#059669" font-size="48" font-weight="bold" text-anchor="middle">12%</text>
  <text x="890" y="225" fill="#059669" font-size="14" text-anchor="middle">AI Probability</text>
  <text x="890" y="250" fill="#059669" font-size="12" text-anchor="middle">✓ LOW RISK — Likely Human Written</text>
  <rect x="620" y="285" width="540" height="200" rx="6" fill="#f9fafb" stroke="#e5e7eb" stroke-width="1"/>
  <text x="640" y="310" fill="#111827" font-size="13" font-weight="bold">Analysis Breakdown:</text>
  <text x="640" y="335" fill="#6b7280" font-size="11">Sentence Complexity: ✓ Human patterns detected</text>
  <text x="640" y="358" fill="#6b7280" font-size="11">Vocabulary Variation: ✓ Natural distribution</text>
  <text x="640" y="381" fill="#6b7280" font-size="11">Writing Flow: ✓ Normal rhythm patterns</text>
  <text x="640" y="404" fill="#6b7280" font-size="11">Structural Coherence: ✓ Academic conventions met</text>
  <text x="640" y="427" fill="#6b7280" font-size="11">Terminology Usage: ✓ Field-appropriate language</text>
  <rect x="620" y="510" width="540" height="55" rx="6" fill="#fffbeb" stroke="#f59e0b" stroke-width="1"/>
  <text x="640" y="535" fill="#d97706" font-size="12" font-weight="bold">⚡ 99% Accuracy • Academic Writing Specialist</text>
  <text x="640" y="555" fill="#6b7280" font-size="10">Cross-referenced: Turnitin, GPTZero, Copyleaks</text>
</svg>
