<?xml version="1.0" encoding="UTF-8"?>
<svg xmlns="http://www.w3.org/2000/svg" viewBox="0 0 1200 630">
  <rect width="1200" height="630" fill="#f0fdfa"/>
  <rect x="0" y="0" width="1200" height="60" fill="#0d9488"/>
  <text x="30" y="38" fill="#fff" font-size="20" font-weight="bold">AI Humanizer for College — json</text>
  <rect x="20" y="80" width="560" height="500" rx="12" fill="#fff" stroke="#d1d5db" stroke-width="2"/>
  <text x="40" y="110" fill="#111827" font-size="18" font-weight="bold">Paste Your Text</text>
  <rect x="40" y="130" width="520" height="220" rx="6" fill="#f0fdfa" stroke="#d1d5db" stroke-width="1"/>
  <text x="55" y="160" fill="#6b7280" font-size="13">Paste your AI-generated essay or assignment...</text>
  <text x="55" y="185" fill="#9ca3af" font-size="11">Our AI will humanize your text to sound natural,</text>
  <text x="55" y="200" fill="#9ca3af" font-size="11">bypassing Turnitin and GPTZero detection.</text>
  <rect x="40" y="370" width="250" height="40" rx="6" fill="#f0fdfa" stroke="#d1d5db" stroke-width="1"/>
  <text x="55" y="395" fill="#111827" font-size="13">Type: Essay / Paper</text>
  <text x="270" y="395" fill="#6b7280" font-size="13">▼</text>
  <rect x="310" y="370" width="250" height="40" rx="6" fill="#f0fdfa" stroke="#d1d5db" stroke-width="1"/>
  <text x="325" y="395" fill="#111827" font-size="13">Tone: Natural</text>
  <text x="540" y="395" fill="#6b7280" font-size="13">▼</text>
  <rect x="40" y="430" width="520" height="50" rx="8" fill="#0d9488"/>
  <text x="300" y="462" fill="#fff" font-size="16" font-weight="bold" text-anchor="middle">✨ Humanize Text</text>
  <rect x="600" y="80" width="580" height="500" rx="12" fill="#fff" stroke="#d1d5db" stroke-width="2"/>
  <text x="620" y="110" fill="#111827" font-size="18" font-weight="bold">Humanized Result</text>
  <rect x="1000" y="95" width="80" height="30" rx="4" fill="#f0fdfa" stroke="#d1d5db" stroke-width="1"/>
  <text x="1040" y="115" fill="#0d9488" font-size="11" text-anchor="middle">📋 Copy</text>
  <rect x="620" y="140" width="540" height="350" rx="6" fill="#f9fafb" stroke="#e5e7eb" stroke-width="1"/>
  <text x="640" y="170" fill="#111827" font-size="13" font-weight="bold">Before:</text>
  <text x="640" y="195" fill="#6b7280" font-size="11">The rapid advancement of technology has</text>
  <text x="640" y="210" fill="#6b7280" font-size="11">significantly impacted the educational landscape...</text>
  <text x="640" y="250" fill="#111827" font-size="13" font-weight="bold">After Humanization:</text>
  <text x="640" y="275" fill="#0d9488" font-size="11">Technology has really changed how we learn and</text>
  <text x="640" y="290" fill="#0d9488" font-size="11">study in ways we couldn't have imagined before...</text>
  <rect x="620" y="510" width="540" height="55" rx="6" fill="#ecfdf5" stroke="#10b981" stroke-width="1"/>
  <text x="640" y="535" fill="#059669" font-size="12" font-weight="bold">✓ 98% Human Score • Passes Turnitin</text>
  <text x="640" y="555" fill="#059669" font-size="10">Bypasses GPTZero, Copyleaks, Originality.ai</text>
</svg>
