<?xml version="1.0" encoding="UTF-8"?>
<svg xmlns="http://www.w3.org/2000/svg" viewBox="0 0 800 500">
  <rect width="800" height="500" fill="#f0fdfa" rx="16"/>
  <text x="400" y="40" fill="#111827" font-size="22" font-weight="bold" text-anchor="middle">Document Types &amp; Writing Tones</text>
  <!-- Doc Types -->
  <text x="400" y="75" fill="#0d9488" font-size="15" font-weight="bold" text-anchor="middle">Supported Document Types</text>
  <rect x="30" y="95" width="140" height="110" rx="10" fill="#fff" stroke="#0d9488" stroke-width="2"/>
  <text x="100" y="118" fill="#0d9488" font-size="26" text-anchor="middle">📝</text>
  <text x="100" y="150" fill="#111827" font-size="13" font-weight="bold" text-anchor="middle">Essays</text>
  <text x="100" y="170" fill="#6b7280" font-size="9" text-anchor="middle">Papers &amp; term papers</text>
  <rect x="190" y="95" width="140" height="110" rx="10" fill="#fff" stroke="#0d9488" stroke-width="2"/>
  <text x="260" y="118" fill="#0d9488" font-size="26" text-anchor="middle">📧</text>
  <text x="260" y="150" fill="#111827" font-size="13" font-weight="bold" text-anchor="middle">Emails</text>
  <text x="260" y="170" fill="#6b7280" font-size="9" text-anchor="middle">To professors</text>
  <rect x="350" y="95" width="140" height="110" rx="10" fill="#fff" stroke="#0d9488" stroke-width="2"/>
  <text x="420" y="118" fill="#0d9488" font-size="26" text-anchor="middle">🎓</text>
  <text x="420" y="150" fill="#111827" font-size="13" font-weight="bold" text-anchor="middle">Applications</text>
  <text x="420" y="170" fill="#6b7280" font-size="9" text-anchor="middle">Admissions &amp; scholarships</text>
  <rect x="510" y="95" width="140" height="110" rx="10" fill="#fff" stroke="#0d9488" stroke-width="2"/>
  <text x="580" y="118" fill="#0d9488" font-size="26" text-anchor="middle">📊</text>
  <text x="580" y="150" fill="#111827" font-size="13" font-weight="bold" text-anchor="middle">Reports</text>
  <text x="580" y="170" fill="#6b7280" font-size="9" text-anchor="middle">Lab &amp; research reports</text>
  <rect x="670" y="95" width="100" height="110" rx="10" fill="#fff" stroke="#0d9488" stroke-width="2"/>
  <text x="720" y="118" fill="#0d9488" font-size="26" text-anchor="middle">📋</text>
  <text x="720" y="150" fill="#111827" font-size="13" font-weight="bold" text-anchor="middle">Assignments</text>
  <text x="720" y="170" fill="#6b7280" font-size="9" text-anchor="middle">Homework</text>
  <!-- Tones Section -->
  <text x="400" y="240" fill="#0d9488" font-size="15" font-weight="bold" text-anchor="middle">Writing Tones</text>
  <rect x="40" y="260" width="350" height="200" rx="12" fill="#fff" stroke="#059669" stroke-width="2"/>
  <text x="215" y="290" fill="#059669" font-size="16" font-weight="bold" text-anchor="middle">Natural</text>
  <text x="215" y="315" fill="#6b7280" font-size="11" text-anchor="middle">Sounds like a real student wrote it.</text>
  <text x="215" y="335" fill="#6b7280" font-size="11" text-anchor="middle">Balanced, readable, genuine.</text>
  <rect x="65" y="360" width="140" height="30" rx="6" fill="#ecfdf5"/>
  <text x="135" y="380" fill="#059669" font-size="10" text-anchor="middle">Best for: Essays</text>
  <rect x="215" y="360" width="140" height="30" rx="6" fill="#ecfdf5"/>
  <text x="285" y="380" fill="#059669" font-size="10" text-anchor="middle">Best for: Homework</text>
  <text x="215" y="430" fill="#059669" font-size="10" text-anchor="middle">✓ Most popular choice for students</text>
  <rect x="410" y="260" width="350" height="95" rx="12" fill="#fff" stroke="#0d9488" stroke-width="2"/>
  <text x="585" y="285" fill="#0d9488" font-size="14" font-weight="bold" text-anchor="middle">Formal</text>
  <text x="585" y="308" fill="#6b7280" font-size="10" text-anchor="middle">Professional tone for academic submissions</text>
  <text x="585" y="328" fill="#0d9488" font-size="9" text-anchor="middle">Best for: Research papers, thesis chapters</text>
  <rect x="410" y="365" width="350" height="95" rx="12" fill="#fff" stroke="#14b8a6" stroke-width="2"/>
  <text x="585" y="390" fill="#14b8a6" font-size="14" font-weight="bold" text-anchor="middle">Academic</text>
  <text x="585" y="413" fill="#6b7280" font-size="10" text-anchor="middle">Scholarly writing with proper terminology</text>
  <text x="585" y="433" fill="#14b8a6" font-size="9" text-anchor="middle">Best for: Lab reports, journal-style papers</text>
</svg>
