<?xml version="1.0" encoding="UTF-8"?>
<svg xmlns="http://www.w3.org/2000/svg" viewBox="0 0 800 300">
  <rect width="800" height="300" fill="#f9fafb"/>
  <text x="400" y="40" fill="#111827" font-size="20" font-weight="bold" text-anchor="middle">5 Writing Styles for Every Need</text>
  <g transform="translate(80, 80)">
    <circle cx="50" cy="50" r="45" fill="#10b981"/>
    <text x="50" y="60" text-anchor="middle" fill="#fff" font-size="24">🌿</text>
    <text x="50" y="130" text-anchor="middle" fill="#111827" font-size="14" font-weight="bold">Natural</text>
    <text x="50" y="150" text-anchor="middle" fill="#6b7280" font-size="10">Smooth &amp; readable</text>
  </g>
  <g transform="translate(240, 80)">
    <circle cx="50" cy="50" r="45" fill="#1e3a5f"/>
    <text x="50" y="60" text-anchor="middle" fill="#fff" font-size="24">👔</text>
    <text x="50" y="130" text-anchor="middle" fill="#111827" font-size="14" font-weight="bold">Formal</text>
    <text x="50" y="150" text-anchor="middle" fill="#6b7280" font-size="10">Business tone</text>
  </g>
  <g transform="translate(400, 80)">
    <circle cx="50" cy="50" r="45" fill="#7c3aed"/>
    <text x="50" y="60" text-anchor="middle" fill="#fff" font-size="24">🎓</text>
    <text x="50" y="130" text-anchor="middle" fill="#111827" font-size="14" font-weight="bold">Academic</text>
    <text x="50" y="150" text-anchor="middle" fill="#6b7280" font-size="10">Scholarly precision</text>
  </g>
  <g transform="translate(560, 80)">
    <circle cx="50" cy="50" r="45" fill="#ec4899"/>
    <text x="50" y="60" text-anchor="middle" fill="#fff" font-size="24">🎨</text>
    <text x="50" y="130" text-anchor="middle" fill="#111827" font-size="14" font-weight="bold">Creative</text>
    <text x="50" y="150" text-anchor="middle" fill="#6b7280" font-size="10">Expressive flair</text>
  </g>
  <g transform="translate(720, 80)">
    <circle cx="50" cy="50" r="45" fill="#f59e0b"/>
    <text x="50" y="60" text-anchor="middle" fill="#fff" font-size="24">✂️</text>
    <text x="50" y="130" text-anchor="middle" fill="#111827" font-size="14" font-weight="bold">Concise</text>
    <text x="50" y="150" text-anchor="middle" fill="#6b7280" font-size="10">Short &amp; direct</text>
  </g>
  <rect x="100" y="220" width="600" height="60" rx="8" fill="#fff" stroke="#e5e7eb" stroke-width="1"/>
  <text x="400" y="250" fill="#111827" font-size="12" font-weight="bold" text-anchor="middle">4 Purposes: Readability • Engagement • Professional • Simplify</text>
  <text x="400" y="270" fill="#6b7280" font-size="11" text-anchor="middle">Tailor paragraph rewriting to your exact writing goals</text>
</svg>
