<svg xmlns="http://www.w3.org/2000/svg" viewBox="0 0 800 440" fill="none">
  <defs>
    <linearGradient id="bg" x1="0%" y1="0%" x2="100%" y2="100%">
      <stop offset="0%" style="stop-color:#0f172a"/>
      <stop offset="100%" style="stop-color:#1e1b4b"/>
    </linearGradient>
    <linearGradient id="accent" x1="0%" y1="0%" x2="100%" y2="0%">
      <stop offset="0%" style="stop-color:#4f46e5"/>
      <stop offset="100%" style="stop-color:#818cf8"/>
    </linearGradient>
  </defs>
  <rect width="800" height="440" rx="16" fill="url(#bg)"/>
  <rect x="0" y="0" width="800" height="4" rx="2" fill="url(#accent)"/>
  <!-- Title -->
  <text x="400" y="44" font-family="system-ui,-apple-system,sans-serif" font-size="20" font-weight="700" fill="#e0e7ff" text-anchor="middle">Web Proxy vs VPN — Feature Comparison</text>
  <text x="400" y="66" font-family="system-ui,-apple-system,sans-serif" font-size="13" fill="#94a3b8" text-anchor="middle">How our free proxy compares to paid VPN services</text>
  <!-- Feature comparison bars -->
  <!-- Privacy Level -->
  <text x="60" y="108" font-family="system-ui,-apple-system,sans-serif" font-size="13" font-weight="600" fill="#e0e7ff">Privacy Level</text>
  <text x="600" y="108" font-family="system-ui,-apple-system,sans-serif" font-size="11" fill="#818cf8" text-anchor="end">95%</text>
  <rect x="60" y="116" width="680" height="10" rx="5" fill="#1e293b"/>
  <rect x="60" y="116" width="646" height="10" rx="5" fill="url(#accent)"/>
  <!-- Encryption -->
  <text x="60" y="152" font-family="system-ui,-apple-system,sans-serif" font-size="13" font-weight="600" fill="#e0e7ff">AES-256 Encryption</text>
  <text x="600" y="152" font-family="system-ui,-apple-system,sans-serif" font-size="11" fill="#818cf8" text-anchor="end">100%</text>
  <rect x="60" y="160" width="680" height="10" rx="5" fill="#1e293b"/>
  <rect x="60" y="160" width="680" height="10" rx="5" fill="url(#accent)"/>
  <!-- Speed -->
  <text x="60" y="196" font-family="system-ui,-apple-system,sans-serif" font-size="13" font-weight="600" fill="#e0e7ff">Browsing Speed</text>
  <text x="600" y="196" font-family="system-ui,-apple-system,sans-serif" font-size="11" fill="#818cf8" text-anchor="end">90%</text>
  <rect x="60" y="204" width="680" height="10" rx="5" fill="#1e293b"/>
  <rect x="60" y="204" width="612" height="10" rx="5" fill="url(#accent)"/>
  <!-- Ease of Use -->
  <text x="60" y="240" font-family="system-ui,-apple-system,sans-serif" font-size="13" font-weight="600" fill="#e0e7ff">Ease of Use (No Install)</text>
  <text x="600" y="240" font-family="system-ui,-apple-system,sans-serif" font-size="11" fill="#818cf8" text-anchor="end">100%</text>
  <rect x="60" y="248" width="680" height="10" rx="5" fill="#1e293b"/>
  <rect x="60" y="248" width="680" height="10" rx="5" fill="url(#accent)"/>
  <!-- Comparison table -->
  <text x="400" y="295" font-family="system-ui,-apple-system,sans-serif" font-size="15" font-weight="700" fill="#e0e7ff" text-anchor="middle">Key Differences at a Glance</text>
  <!-- Table header -->
  <rect x="40" y="310" width="340" height="32" rx="6" fill="#4f46e5" opacity="0.3"/>
  <rect x="410" y="310" width="350" height="32" rx="6" fill="#4f46e5" opacity="0.3"/>
  <text x="210" y="331" font-family="system-ui,-apple-system,sans-serif" font-size="13" font-weight="700" fill="#e0e7ff" text-anchor="middle">🛡️ Web Proxy (Free)</text>
  <text x="585" y="331" font-family="system-ui,-apple-system,sans-serif" font-size="13" font-weight="700" fill="#94a3b8" text-anchor="middle">🔒 VPN (Paid)</text>
  <!-- Table rows -->
  <rect x="40" y="345" width="720" height="28" rx="0" fill="#1e293b" opacity="0.5"/>
  <text x="60" y="364" font-family="system-ui,-apple-system,sans-serif" font-size="11" fill="#e0e7ff">✅ No installation required</text>
  <text x="440" y="364" font-family="system-ui,-apple-system,sans-serif" font-size="11" fill="#94a3b8">❌ Requires software download</text>

  <rect x="40" y="375" width="720" height="28" rx="0" fill="transparent"/>
  <text x="60" y="394" font-family="system-ui,-apple-system,sans-serif" font-size="11" fill="#e0e7ff">✅ Completely free</text>
  <text x="440" y="394" font-family="system-ui,-apple-system,sans-serif" font-size="11" fill="#94a3b8">💰 Monthly subscription fee</text>

  <rect x="40" y="405" width="720" height="28" rx="0" fill="#1e293b" opacity="0.5"/>
  <text x="60" y="424" font-family="system-ui,-apple-system,sans-serif" font-size="11" fill="#e0e7ff">✅ Instant access in browser</text>
  <text x="440" y="424" font-family="system-ui,-apple-system,sans-serif" font-size="11" fill="#94a3b8">⚙️ Requires configuration</text>
</svg>