<svg xmlns="http://www.w3.org/2000/svg" viewBox="0 0 1200 630" width="1200" height="630">
  <defs>
    <linearGradient id="bg" x1="0" y1="0" x2="1" y2="1">
      <stop offset="0%" stop-color="#064e3b"/>
      <stop offset="100%" stop-color="#047857"/>
    </linearGradient>
    <linearGradient id="card" x1="0" y1="0" x2="0" y2="1">
      <stop offset="0%" stop-color="#ffffff"/>
      <stop offset="100%" stop-color="#f0fdf4"/>
    </linearGradient>
  </defs>
  <rect width="1200" height="630" fill="url(#bg)"/>
  <!-- Title -->
  <text x="600" y="60" text-anchor="middle" fill="#a7f3d0" font-family="system-ui,sans-serif" font-size="22" font-weight="700">Free Proxy List Tool — ToolboxNova</text>
  <!-- Main card -->
  <rect x="80" y="90" width="1040" height="440" rx="16" fill="url(#card)" stroke="#d1fae5" stroke-width="2"/>
  <!-- Header bar -->
  <rect x="80" y="90" width="1040" height="50" rx="16" fill="#065f46"/>
  <rect x="80" y="120" width="1040" height="20" fill="#065f46"/>
  <circle cx="112" cy="115" r="7" fill="#ef4444"/>
  <circle cx="136" cy="115" r="7" fill="#f59e0b"/>
  <circle cx="160" cy="115" r="7" fill="#22c55e"/>
  <text x="600" y="120" text-anchor="middle" fill="white" font-family="system-ui,sans-serif" font-size="14" font-weight="600">🔒 Free Proxy Server List — 10,000+ Proxies Updated Every 30 Minutes</text>
  <!-- Stats row -->
  <rect x="120" y="160" width="200" height="60" rx="10" fill="#ecfdf5" stroke="#d1fae5"/>
  <text x="220" y="185" text-anchor="middle" fill="#059669" font-family="system-ui,sans-serif" font-size="24" font-weight="800">10,247</text>
  <text x="220" y="208" text-anchor="middle" fill="#6b7280" font-family="system-ui,sans-serif" font-size="11">TOTAL PROXIES</text>
  <rect x="340" y="160" width="200" height="60" rx="10" fill="#ecfdf5" stroke="#d1fae5"/>
  <text x="440" y="185" text-anchor="middle" fill="#059669" font-family="system-ui,sans-serif" font-size="24" font-weight="800">9,224</text>
  <text x="440" y="208" text-anchor="middle" fill="#6b7280" font-family="system-ui,sans-serif" font-size="11">ALIVE</text>
  <rect x="560" y="160" width="200" height="60" rx="10" fill="#ecfdf5" stroke="#d1fae5"/>
  <text x="660" y="185" text-anchor="middle" fill="#059669" font-family="system-ui,sans-serif" font-size="24" font-weight="800">84</text>
  <text x="660" y="208" text-anchor="middle" fill="#6b7280" font-family="system-ui,sans-serif" font-size="11">COUNTRIES</text>
  <!-- Protocol tabs -->
  <rect x="120" y="240" width="960" height="36" rx="8" fill="#f0fdf4" stroke="#d1fae5"/>
  <rect x="120" y="240" width="192" height="36" rx="8" fill="#059669"/>
  <text x="216" y="263" text-anchor="middle" fill="white" font-family="system-ui,sans-serif" font-size="12" font-weight="600">ALL</text>
  <text x="408" y="263" text-anchor="middle" fill="#475569" font-family="system-ui,sans-serif" font-size="12" font-weight="500">HTTP</text>
  <text x="600" y="263" text-anchor="middle" fill="#475569" font-family="system-ui,sans-serif" font-size="12" font-weight="500">HTTPS</text>
  <text x="792" y="263" text-anchor="middle" fill="#475569" font-family="system-ui,sans-serif" font-size="12" font-weight="500">SOCKS4</text>
  <text x="936" y="263" text-anchor="middle" fill="#475569" font-family="system-ui,sans-serif" font-size="12" font-weight="500">SOCKS5</text>
  <!-- Table header -->
  <rect x="120" y="292" width="960" height="32" fill="#065f46"/>
  <text x="145" y="312" fill="white" font-family="monospace" font-size="11" font-weight="600">IP ADDRESS</text>
  <text x="350" y="312" fill="white" font-family="monospace" font-size="11" font-weight="600">PROTOCOL</text>
  <text x="470" y="312" fill="white" font-family="monospace" font-size="11" font-weight="600">COUNTRY</text>
  <text x="600" y="312" fill="white" font-family="monospace" font-size="11" font-weight="600">ANONYMITY</text>
  <text x="740" y="312" fill="white" font-family="monospace" font-size="11" font-weight="600">LATENCY</text>
  <text x="880" y="312" fill="white" font-family="monospace" font-size="11" font-weight="600">UPTIME</text>
  <text x="1010" y="312" fill="white" font-family="monospace" font-size="11" font-weight="600">COPY</text>
  <!-- Table rows -->
  <g font-family="monospace" font-size="12">
    <rect x="120" y="324" width="960" height="30" fill="white"/>
    <text x="145" y="344" fill="#1e293b">192.168.45.102</text>
    <rect x="350" y="330" width="60" height="20" rx="4" fill="#dbeafe"/><text x="365" y="344" fill="#2563eb" font-size="10">HTTP</text>
    <text x="470" y="344" fill="#475569">🇺🇸 United States</text>
    <rect x="600" y="330" width="80" height="20" rx="10" fill="#dcfce7"/><text x="614" y="344" fill="#16a34a" font-size="10">🟢 Elite</text>
    <text x="740" y="344" fill="#16a34a">● 128ms</text>
    <text x="880" y="344" fill="#475569">95.2%</text>
    <rect x="1010" y="328" width="50" height="24" rx="5" fill="#f0fdf4" stroke="#d1fae5"/><text x="1022" y="344" fill="#059669" font-size="10">Copy</text>

    <rect x="120" y="354" width="960" height="30" fill="#f8fafc"/>
    <text x="145" y="374" fill="#1e293b">45.67.89.201</text>
    <rect x="350" y="360" width="60" height="20" rx="4" fill="#dcfce7"/><text x="358" y="374" fill="#16a34a" font-size="10">HTTPS</text>
    <text x="470" y="374" fill="#475569">🇩🇪 Germany</text>
    <rect x="600" y="360" width="80" height="20" rx="10" fill="#fef9c3"/><text x="610" y="374" fill="#d97706" font-size="10">🟡 Anonymous</text>
    <text x="740" y="374" fill="#d97706">● 420ms</text>
    <text x="880" y="374" fill="#475569">88.1%</text>
    <rect x="1010" y="358" width="50" height="24" rx="5" fill="#f0fdf4" stroke="#d1fae5"/><text x="1022" y="374" fill="#059669" font-size="10">Copy</text>

    <rect x="120" y="384" width="960" height="30" fill="white"/>
    <text x="145" y="404" fill="#1e293b">103.24.77.56</text>
    <rect x="350" y="390" width="60" height="20" rx="4" fill="#f3e8ff"/><text x="356" y="404" fill="#a855f7" font-size="10">SOCKS5</text>
    <text x="470" y="404" fill="#475569">🇯🇵 Japan</text>
    <rect x="600" y="390" width="80" height="20" rx="10" fill="#dcfce7"/><text x="614" y="404" fill="#16a34a" font-size="10">🟢 Elite</text>
    <text x="740" y="404" fill="#16a34a">● 85ms</text>
    <text x="880" y="404" fill="#475569">97.8%</text>
    <rect x="1010" y="388" width="50" height="24" rx="5" fill="#f0fdf4" stroke="#d1fae5"/><text x="1022" y="404" fill="#059669" font-size="10">Copy</text>

    <rect x="120" y="414" width="960" height="30" fill="#f8fafc"/>
    <text x="145" y="434" fill="#1e293b">78.34.112.89</text>
    <rect x="350" y="420" width="60" height="20" rx="4" fill="#fef9c3"/><text x="356" y="434" fill="#d97706" font-size="10">SOCKS4</text>
    <text x="470" y="434" fill="#475569">🇫🇷 France</text>
    <rect x="600" y="420" width="80" height="20" rx="10" fill="#f1f5f9"/><text x="610" y="434" fill="#6b7280" font-size="10">🔴 Transparent</text>
    <text x="740" y="434" fill="#dc2626">● 1850ms</text>
    <text x="880" y="434" fill="#475569">62.4%</text>
    <rect x="1010" y="418" width="50" height="24" rx="5" fill="#f0fdf4" stroke="#d1fae5"/><text x="1022" y="434" fill="#059669" font-size="10">Copy</text>

    <rect x="120" y="444" width="960" height="30" fill="white"/>
    <text x="145" y="464" fill="#1e293b">201.55.98.14</text>
    <rect x="350" y="450" width="60" height="20" rx="4" fill="#dbeafe"/><text x="365" y="464" fill="#2563eb" font-size="10">HTTP</text>
    <text x="470" y="464" fill="#475569">🇧🇷 Brazil</text>
    <rect x="600" y="450" width="80" height="20" rx="10" fill="#fef9c3"/><text x="610" y="464" fill="#d97706" font-size="10">🟡 Anonymous</text>
    <text x="740" y="464" fill="#d97706">● 380ms</text>
    <text x="880" y="464" fill="#475569">91.5%</text>
    <rect x="1010" y="448" width="50" height="24" rx="5" fill="#f0fdf4" stroke="#d1fae5"/><text x="1022" y="464" fill="#059669" font-size="10">Copy</text>
  </g>
  <!-- Pagination -->
  <text x="540" y="500" fill="#475569" font-family="system-ui,sans-serif" font-size="12">← Prev</text>
  <rect x="590" y="488" width="60" height="20" rx="4" fill="#ecfdf5" stroke="#d1fae5"/>
  <text x="620" y="502" text-anchor="middle" fill="#059669" font-family="system-ui,sans-serif" font-size="11" font-weight="600">1 / 923</text>
  <text x="680" y="500" fill="#475569" font-family="system-ui,sans-serif" font-size="12">Next →</text>
  <!-- Sync bar -->
  <rect x="120" y="520" width="960" height="2" rx="1" fill="#d1fae5"/>
  <rect x="120" y="520" width="720" height="2" rx="1" fill="#10b981"/>
  <text x="600" y="545" text-anchor="middle" fill="#6b7280" font-family="system-ui,sans-serif" font-size="11">🔄 Last synced: 5 min ago · Next sync in 24m 32s</text>
</svg>
