<svg xmlns="http://www.w3.org/2000/svg" viewBox="0 0 800 500" width="800" height="500">
  <defs>
    <linearGradient id="g1" x1="0%" y1="0%" x2="100%" y2="100%">
      <stop offset="0%" style="stop-color:#0e7490"/>
      <stop offset="100%" style="stop-color:#06b6d4"/>
    </linearGradient>
    <filter id="sh">
      <feDropShadow dx="0" dy="2" stdDeviation="4" flood-opacity="0.08"/>
    </filter>
  </defs>
  <rect width="800" height="500" fill="#ecfeff" rx="12"/>

  <!-- Title -->
  <text x="400" y="42" font-family="system-ui, sans-serif" font-size="18" font-weight="700" fill="#0f172a" text-anchor="middle">临时邮箱使用场景 — 多场景隐私保护</text>

  <!-- Row 1 -->
  <g transform="translate(30, 70)">
    <rect x="0" y="0" width="240" height="130" rx="12" fill="white" filter="url(#sh)"/>
    <circle cx="40" cy="45" r="28" fill="#ecfeff"/>
    <text x="40" y="53" font-family="system-ui, sans-serif" font-size="24" text-anchor="middle">🔐</text>
    <text x="130" y="35" font-family="system-ui, sans-serif" font-size="14" font-weight="600" fill="#0f172a">网站注册保护</text>
    <text x="20" y="80" font-family="system-ui, sans-serif" font-size="11" fill="#64748b">注册不常用网站时使用</text>
    <text x="20" y="95" font-family="system-ui, sans-serif" font-size="11" fill="#64748b">避免真实邮箱被收集</text>
    <text x="20" y="110" font-family="system-ui, sans-serif" font-size="11" fill="#64748b">防止垃圾邮件轰炸</text>
  </g>

  <g transform="translate(280, 70)">
    <rect x="0" y="0" width="240" height="130" rx="12" fill="white" filter="url(#sh)"/>
    <circle cx="40" cy="45" r="28" fill="#f0fdfa"/>
    <text x="40" y="53" font-family="system-ui, sans-serif" font-size="24" text-anchor="middle">🧪</text>
    <text x="130" y="35" font-family="system-ui, sans-serif" font-size="14" font-weight="600" fill="#0f172a">软件开发测试</text>
    <text x="20" y="80" font-family="system-ui, sans-serif" font-size="11" fill="#64748b">测试邮件发送功能</text>
    <text x="20" y="95" font-family="system-ui, sans-serif" font-size="11" fill="#64748b">验证注册/重置流程</text>
    <text x="20" y="110" font-family="system-ui, sans-serif" font-size="11" fill="#64748b">自动化测试集成</text>
  </g>

  <g transform="translate(530, 70)">
    <rect x="0" y="0" width="240" height="130" rx="12" fill="white" filter="url(#sh)"/>
    <circle cx="40" cy="45" r="28" fill="#ecfeff"/>
    <text x="40" y="53" font-family="system-ui, sans-serif" font-size="24" text-anchor="middle">💰</text>
    <text x="130" y="35" font-family="system-ui, sans-serif" font-size="14" font-weight="600" fill="#0f172a">免费试用领取</text>
    <text x="20" y="80" font-family="system-ui, sans-serif" font-size="11" fill="#64748b">多次使用免费试用</text>
    <text x="20" y="95" font-family="system-ui, sans-serif" font-size="11" fill="#64748b">领取限时优惠活动</text>
    <text x="20" y="110" font-family="system-ui, sans-serif" font-size="11" fill="#64748b">避免自动续费扣款</text>
  </g>

  <!-- Row 2 -->
  <g transform="translate(30, 210)">
    <rect x="0" y="0" width="240" height="130" rx="12" fill="white" filter="url(#sh)"/>
    <circle cx="40" cy="45" r="28" fill="#f0fdfa"/>
    <text x="40" y="53" font-family="system-ui, sans-serif" font-size="24" text-anchor="middle">📋</text>
    <text x="130" y="35" font-family="system-ui, sans-serif" font-size="14" font-weight="600" fill="#0f172a">临时通讯需求</text>
    <text x="20" y="80" font-family="system-ui, sans-serif" font-size="11" fill="#64748b">二手交易联系使用</text>
    <text x="20" y="95" font-family="system-ui, sans-serif" font-size="11" fill="#64748b">短期项目合作沟通</text>
    <text x="20" y="110" font-family="system-ui, sans-serif" font-size="11" fill="#64748b">避免后续骚扰跟进</text>
  </g>

  <g transform="translate(280, 210)">
    <rect x="0" y="0" width="240" height="130" rx="12" fill="white" filter="url(#sh)"/>
    <circle cx="40" cy="45" r="28" fill="#ecfeff"/>
    <text x="40" y="53" font-family="system-ui, sans-serif" font-size="24" text-anchor="middle">🌍</text>
    <text x="130" y="35" font-family="system-ui, sans-serif" font-size="14" font-weight="600" fill="#0f172a">海外服务注册</text>
    <text x="20" y="80" font-family="system-ui, sans-serif" font-size="11" fill="#64748b">注册海外社交平台</text>
    <text x="20" y="95" font-family="system-ui, sans-serif" font-size="11" fill="#64748b">访问地区限制内容</text>
    <text x="20" y="110" font-family="system-ui, sans-serif" font-size="11" fill="#64748b">保护跨境隐私安全</text>
  </g>

  <g transform="translate(530, 210)">
    <rect x="0" y="0" width="240" height="130" rx="12" fill="white" filter="url(#sh)"/>
    <circle cx="40" cy="45" r="28" fill="#f0fdfa"/>
    <text x="40" y="53" font-family="system-ui, sans-serif" font-size="24" text-anchor="middle">🛡️</text>
    <text x="130" y="35" font-family="system-ui, sans-serif" font-size="14" font-weight="600" fill="#0f172a">防数据泄露</text>
    <text x="20" y="80" font-family="system-ui, sans-serif" font-size="11" fill="#64748b">避免邮箱出现在数据泄露</text>
    <text x="20" y="95" font-family="system-ui, sans-serif" font-size="11" fill="#64748b">隔离潜在风险服务</text>
    <text x="20" y="110" font-family="system-ui, sans-serif" font-size="11" fill="#64748b">保护主邮箱安全</text>
  </g>

  <!-- Stats bar -->
  <rect x="50" y="370" width="700" height="80" rx="14" fill="white" filter="url(#sh)"/>
  <g transform="translate(80, 395)">
    <text x="0" y="20" font-family="system-ui, sans-serif" font-size="22" font-weight="700" fill="#0e7490">10 min</text>
    <text x="0" y="45" font-family="system-ui, sans-serif" font-size="12" fill="#64748b">自动过期</text>
  </g>
  <line x1="175" y1="385" x2="175" y2="435" stroke="#e2e8f0" stroke-width="1"/>
  <g transform="translate(210, 395)">
    <text x="0" y="20" font-family="system-ui, sans-serif" font-size="22" font-weight="700" fill="#06b6d4">15s</text>
    <text x="0" y="45" font-family="system-ui, sans-serif" font-size="12" fill="#64748b">自动刷新</text>
  </g>
  <line x1="285" y1="385" x2="285" y2="435" stroke="#e2e8f0" stroke-width="1"/>
  <g transform="translate(320, 395)">
    <text x="0" y="20" font-family="system-ui, sans-serif" font-size="22" font-weight="700" fill="#0e7490">0</text>
    <text x="0" y="45" font-family="system-ui, sans-serif" font-size="12" fill="#64748b">数据留存</text>
  </g>
  <line x1="385" y1="385" x2="385" y2="435" stroke="#e2e8f0" stroke-width="1"/>
  <g transform="translate(420, 395)">
    <text x="0" y="20" font-family="system-ui, sans-serif" font-size="22" font-weight="700" fill="#06b6d4">免费</text>
    <text x="0" y="45" font-family="system-ui, sans-serif" font-size="12" fill="#64748b">无需注册</text>
  </g>
  <line x1="500" y1="385" x2="500" y2="435" stroke="#e2e8f0" stroke-width="1"/>
  <g transform="translate(540, 395)">
    <text x="0" y="20" font-family="system-ui, sans-serif" font-size="22" font-weight="700" fill="#0e7490">HTTPS</text>
    <text x="0" y="45" font-family="system-ui, sans-serif" font-size="12" fill="#64748b">加密传输</text>
  </g>
  <line x1="630" y1="385" x2="630" y2="435" stroke="#e2e8f0" stroke-width="1"/>
  <g transform="translate(660, 395)">
    <text x="0" y="20" font-family="system-ui, sans-serif" font-size="22" font-weight="700" fill="#06b6d4">多域名</text>
    <text x="0" y="45" font-family="system-ui, sans-serif" font-size="12" fill="#64748b">灵活选择</text>
  </g>
</svg>