<svg xmlns="http://www.w3.org/2000/svg" viewBox="0 0 800 500" width="800" height="500">
  <defs>
    <linearGradient id="g1" x1="0%" y1="0%" x2="100%" y2="100%">
      <stop offset="0%" style="stop-color:#6366f1"/>
      <stop offset="100%" style="stop-color:#8b5cf6"/>
    </linearGradient>
    <linearGradient id="g2" x1="0%" y1="0%" x2="100%" y2="100%">
      <stop offset="0%" style="stop-color:#a855f7"/>
      <stop offset="100%" style="stop-color:#c084fc"/>
    </linearGradient>
    <filter id="sh">
      <feDropShadow dx="0" dy="2" stdDeviation="4" flood-opacity="0.08"/>
    </filter>
  </defs>
  <rect width="800" height="500" fill="#faf5ff" rx="12"/>

  <!-- Title -->
  <text x="400" y="42" font-family="system-ui, sans-serif" font-size="18" font-weight="700" fill="#0f172a" text-anchor="middle">虚拟身份生成器 — 多场景应用</text>

  <!-- Use case cards grid (2x3) -->
  <!-- Row 1 -->
  <g transform="translate(30, 70)">
    <rect x="0" y="0" width="240" height="130" rx="12" fill="white" filter="url(#sh)"/>
    <circle cx="40" cy="45" r="28" fill="#f5f3ff"/>
    <text x="40" y="53" font-family="system-ui, sans-serif" font-size="24" text-anchor="middle">🧪</text>
    <text x="130" y="35" font-family="system-ui, sans-serif" font-size="14" font-weight="600" fill="#0f172a">软件测试开发</text>
    <text x="20" y="80" font-family="system-ui, sans-serif" font-size="11" fill="#64748b">生成测试用户数据集</text>
    <text x="20" y="95" font-family="system-ui, sans-serif" font-size="11" fill="#64748b">批量创建虚拟账号进行</text>
    <text x="20" y="110" font-family="system-ui, sans-serif" font-size="11" fill="#64748b">自动化测试和压力测试</text>
  </g>

  <g transform="translate(280, 70)">
    <rect x="0" y="0" width="240" height="130" rx="12" fill="white" filter="url(#sh)"/>
    <circle cx="40" cy="45" r="28" fill="#faf5ff"/>
    <text x="40" y="53" font-family="system-ui, sans-serif" font-size="24" text-anchor="middle">📊</text>
    <text x="130" y="35" font-family="system-ui, sans-serif" font-size="14" font-weight="600" fill="#0f172a">数据分析研究</text>
    <text x="20" y="80" font-family="system-ui, sans-serif" font-size="11" fill="#64748b">创建匿名样本数据</text>
    <text x="20" y="95" font-family="system-ui, sans-serif" font-size="11" fill="#64748b">保护隐私的统计研究</text>
    <text x="20" y="110" font-family="system-ui, sans-serif" font-size="11" fill="#64748b">符合 GDPR/CCPA 规范</text>
  </g>

  <g transform="translate(530, 70)">
    <rect x="0" y="0" width="240" height="130" rx="12" fill="white" filter="url(#sh)"/>
    <circle cx="40" cy="45" r="28" fill="#f5f3ff"/>
    <text x="40" y="53" font-family="system-ui, sans-serif" font-size="24" text-anchor="middle">🛡️</text>
    <text x="130" y="35" font-family="system-ui, sans-serif" font-size="14" font-weight="600" fill="#0f172a">隐私保护防护</text>
    <text x="20" y="80" font-family="system-ui, sans-serif" font-size="11" fill="#64748b">避免真实信息泄露</text>
    <text x="20" y="95" font-family="system-ui, sans-serif" font-size="11" fill="#64748b">注册临时服务时使用</text>
    <text x="20" y="110" font-family="system-ui, sans-serif" font-size="11" fill="#64748b">防止身份盗用风险</text>
  </g>

  <!-- Row 2 -->
  <g transform="translate(30, 210)">
    <rect x="0" y="0" width="240" height="130" rx="12" fill="white" filter="url(#sh)"/>
    <circle cx="40" cy="45" r="28" fill="#faf5ff"/>
    <text x="40" y="53" font-family="system-ui, sans-serif" font-size="24" text-anchor="middle">🌍</text>
    <text x="130" y="35" font-family="system-ui, sans-serif" font-size="14" font-weight="600" fill="#0f172a">跨境电商运营</text>
    <text x="20" y="80" font-family="system-ui, sans-serif" font-size="11" fill="#64748b">生成多国本地身份信息</text>
    <text x="20" y="95" font-family="system-ui, sans-serif" font-size="11" fill="#64748b">测试不同地区用户体验</text>
    <text x="20" y="110" font-family="system-ui, sans-serif" font-size="11" fill="#64748b">本地化市场调研验证</text>
  </g>

  <g transform="translate(280, 210)">
    <rect x="0" y="0" width="240" height="130" rx="12" fill="white" filter="url(#sh)"/>
    <circle cx="40" cy="45" r="28" fill="#f5f3ff"/>
    <text x="40" y="53" font-family="system-ui, sans-serif" font-size="24" text-anchor="middle">🎮</text>
    <text x="130" y="35" font-family="system-ui, sans-serif" font-size="14" font-weight="600" fill="#0f172a">游戏娱乐体验</text>
    <text x="20" y="80" font-family="system-ui, sans-serif" font-size="11" fill="#64748b">创建游戏角色背景故事</text>
    <text x="20" y="95" font-family="system-ui, sans-serif" font-size="11" fill="#64748b">RPG 角色身份设定</text>
    <text x="20" y="110" font-family="system-ui, sans-serif" font-size="11" fill="#64748b">虚拟社区角色扮演</text>
  </g>

  <g transform="translate(530, 210)">
    <rect x="0" y="0" width="240" height="130" rx="12" fill="white" filter="url(#sh)"/>
    <circle cx="40" cy="45" r="28" fill="#faf5ff"/>
    <text x="40" y="53" font-family="system-ui, sans-serif" font-size="24" text-anchor="middle">📝</text>
    <text x="130" y="35" font-family="system-ui, sans-serif" font-size="14" font-weight="600" fill="#0f172a">内容创作写作</text>
    <text x="20" y="80" font-family="system-ui, sans-serif" font-size="11" fill="#64748b">小说角色人物设定</text>
    <text x="20" y="95" font-family="system-ui, sans-serif" font-size="11" fill="#64748b">剧本虚构人物生成</text>
    <text x="20" y="110" font-family="system-ui, sans-serif" font-size="11" fill="#64748b">案例故事角色构建</text>
  </g>

  <!-- Stats bar at bottom -->
  <rect x="50" y="370" width="700" height="80" rx="14" fill="white" filter="url(#sh)"/>
  <g transform="translate(80, 395)">
    <text x="0" y="20" font-family="system-ui, sans-serif" font-size="22" font-weight="700" fill="#6366f1">50+</text>
    <text x="0" y="45" font-family="system-ui, sans-serif" font-size="12" fill="#64748b">支持国家</text>
  </g>
  <line x1="160" y1="385" x2="160" y2="435" stroke="#e2e8f0" stroke-width="1"/>
  <g transform="translate(200, 395)">
    <text x="0" y="20" font-family="system-ui, sans-serif" font-size="22" font-weight="700" fill="#8b5cf6">10+</text>
    <text x="0" y="45" font-family="system-ui, sans-serif" font-size="12" fill="#64748b">数据类型</text>
  </g>
  <line x1="280" y1="385" x2="280" y2="435" stroke="#e2e8f0" stroke-width="1"/>
  <g transform="translate(320, 395)">
    <text x="0" y="20" font-family="system-ui, sans-serif" font-size="22" font-weight="700" fill="#6366f1">1M+</text>
    <text x="0" y="45" font-family="system-ui, sans-serif" font-size="12" fill="#64748b">生成记录</text>
  </g>
  <line x1="400" y1="385" x2="400" y2="435" stroke="#e2e8f0" stroke-width="1"/>
  <g transform="translate(440, 395)">
    <text x="0" y="20" font-family="system-ui, sans-serif" font-size="22" font-weight="700" fill="#8b5cf6">100%</text>
    <text x="0" y="45" font-family="system-ui, sans-serif" font-size="12" fill="#64748b">隐私安全</text>
  </g>
  <line x1="520" y1="385" x2="520" y2="435" stroke="#e2e8f0" stroke-width="1"/>
  <g transform="translate(560, 395)">
    <text x="0" y="20" font-family="system-ui, sans-serif" font-size="22" font-weight="700" fill="#6366f1">免费</text>
    <text x="0" y="45" font-family="system-ui, sans-serif" font-size="12" fill="#64748b">无需注册</text>
  </g>
  <line x1="640" y1="385" x2="640" y2="435" stroke="#e2e8f0" stroke-width="1"/>
  <g transform="translate(680, 395)">
    <text x="0" y="20" font-family="system-ui, sans-serif" font-size="22" font-weight="700" fill="#8b5cf6">即时</text>
    <text x="0" y="45" font-family="system-ui, sans-serif" font-size="12" fill="#64748b">一键生成</text>
  </g>
</svg>